# xmcd
#
# Track frame offsets:
#	150
#	12303
#	24014
#	35235
#	49553
#	62543
#	75978
#	86380
#	96331
#	108136
#	120174
#	134475
#	145386
#	159267
#	172561
#	184272
#	196043
#	208872
#	221108
#	235132
#	246770
#	258481
#	271355
#	291702
#	303916
#
# Disc length: 4215 seconds
#
# Revision: 1
# Processed by: cddbd v1.5.2PL0 Copyright (c) Steve Scherf et al.
# Submitted via: audiograbber 1.83.01
#
DISCID=52107519
DTITLE=Verschiedene - The Legendary Music Box - CD 01
DYEAR=1900
DGENRE=Country
TTITLE0=Bing Crosby - Dear Hearts And Gentle People
TTITLE1=Eddy Arnold - Bouquet Of Roses
TTITLE2=Hank Snow - Let Me Go Lover
TTITLE3=Rex Allen - Crying In The Chapel
TTITLE4=Johnny Cash - Folsom Prison Blues
TTITLE5=Roy Acuff - Tennessee Waltz
TTITLE6=George Jones - Why, Baby, Why
TTITLE7=Charline Arthur - That Candle
TTITLE8=Bob Wills - San Antonio Rose
TTITLE9=Bill Nettles - Wine O'Boogie
TTITLE10=Ernest Tubb - Hobo's Meditation
TTITLE11=Hank Thompson - Dumpty Heart
TTITLE12=Pee Wee King - Slow Poke
TTITLE13=The Osborne Brothers - Little Cabin Hill Home On The Hill
TTITLE14=Kitty Wells - Guitar Waltz
TTITLE15=Tennessee Ernie Ford - Sixteen Tons
TTITLE16=Hank Snow - The Golden Rocket
TTITLE17=Faron Young - Just Out Of Reach
TTITLE18=Bill Monroe - Blue Moon Of Kentucky
TTITLE19=Eddy Arnold - Kentucky Waltz
TTITLE20=Ferlin Husky - All Over More Than Anywhere's Else
TTITLE21=Jim Reeves - Echo Bonita
TTITLE22=Kitty Wells and Hank Thompson - It Wasn't Got Who Made Honky
TTITLE23=Hank Penny - Two Timin' Mama
TTITLE24=Carl Smith - Kisses Don't Lie
EXTD=
EXTT0=
EXTT1=
EXTT2=
EXTT3=
EXTT4=
EXTT5=
EXTT6=
EXTT7=
EXTT8=
EXTT9=
EXTT10=
EXTT11=
EXTT12=
EXTT13=
EXTT14=
EXTT15=
EXTT16=
EXTT17=
EXTT18=
EXTT19=
EXTT20=
EXTT21=
EXTT22=
EXTT23=
EXTT24=
PLAYORDER=
